<?xml version="1.0" standalone="no"?><!DOCTYPE svg PUBLIC "-//W3C//DTD SVG 1.1//EN" "http://www.w3.org/Graphics/SVG/1.1/DTD/svg11.dtd"><svg t="1577260750456" class="icon" viewBox="0 0 1024 1024" version="1.1" xmlns="http://www.w3.org/2000/svg" p-id="9040" xmlns:xlink="http://www.w3.org/1999/xlink" width="64" height="64"><defs><style type="text/css"></style></defs><path d="M938.95146667 414.15146667H842.58133335c-7.96479999-28.90026667-19.45600002-56.32000001-33.90613335-81.80693334l68.15360002-68.15253333c17.74933333-17.74933333 17.74933333-46.64853333 0-64.39786667l-74.06933335-74.06933333c-17.74933333-17.74933333-46.6496-17.74933333-64.39893333 0L670.20799999 193.87733333c-25.48586667-14.45013333-52.90666668-25.94133333-81.80586665-33.90613333v-96.256c0-25.03039999-20.48-45.5104-45.51146665-45.51039999h-104.67520002c-25.03146667 0-45.51146667 20.48-45.51146666 45.51039999v96.37013335c-28.8992 7.96479999-56.32000001 19.45600002-81.80586667 33.90613332l-68.1536-68.15360002c-17.74933333-17.74933333-46.64853333-17.74933333-64.39786666 0l-74.06933334 74.06933335c-17.74933333 17.74933333-17.74933333 46.6496 0 64.39893333l68.15253333 68.15253333c-14.44906667 25.48586667-25.94133333 52.90666668-33.90506667 81.80586667H42.38186667c-25.03039999 0-45.5104 20.48-45.51039999 45.51146668v104.67519999c0 25.03146667 20.48 45.51146667 45.51039999 45.51146666h96.37013335c7.96479999 28.8992 19.45600002 56.32000001 33.90613332 81.80586667l-68.15359999 68.1536c-17.74933333 17.74933333-17.74933333 46.64853333 0 64.39786666l74.06933332 74.06933334c17.74933333 17.74933333 46.6496 17.74933333 64.39893333 0l68.15253333-68.15253333c25.48586667 14.44906667 52.90666668 25.94133333 81.80586667 33.90506667v96.14293333c0 25.03039999 20.48 45.5104 45.51146668 45.51040001h104.67519999c25.03146667 0 45.51146667-20.48 45.51146668-45.51040001V863.91466668c28.8992-7.96479999 56.32000001-19.45600002 81.80586665-33.90613335l68.1536 68.15360002c17.74933333 17.74933333 46.64853333 17.74933333 64.39786668 0l74.06933332-74.06933335c17.74933333-17.74933333 17.74933333-46.6496 0-64.39893333l-68.15253333-68.15253333c14.44906667-25.48586667 25.94133333-52.90666668 33.90506667-81.80586667h96.14293333c25.03039999 0 45.5104-20.48 45.51040001-45.51146668v-104.67519999c0-24.91733334-20.48-45.39733335-45.51040001-45.39733333zM490.66666667 712.24853333c-110.592 0-200.24853333-89.65653334-200.24853333-200.24853333S380.07466667 311.75146667 490.66666667 311.75146667 690.9152 401.408 690.9152 512 601.25866667 712.24853333 490.66666667 712.24853333z" fill="#ffffff" p-id="9041"></path><path d="M390.54186666 512a100.12480001 100.12480001 0 1 0 200.24960002 0 100.12480001 100.12480001 0 1 0-200.2496 0z" fill="#ffffff" p-id="9042"></path></svg>