<?xml version="1.0" standalone="no"?><!DOCTYPE svg PUBLIC "-//W3C//DTD SVG 1.1//EN" "http://www.w3.org/Graphics/SVG/1.1/DTD/svg11.dtd"><svg t="1577262141735" class="icon" viewBox="0 0 1024 1024" version="1.1" xmlns="http://www.w3.org/2000/svg" p-id="29375" xmlns:xlink="http://www.w3.org/1999/xlink" width="64" height="64"><defs><style type="text/css"></style></defs><path d="M537.088 1004.032H109.568c-27.136 0-52.736-11.264-70.656-31.232-14.848-15.872-22.016-37.376-19.968-58.88v-60.416c0-17.92 14.336-31.744 32.256-31.744s31.744 14.336 31.744 31.744v64c-0.512 5.632 0.512 8.704 4.096 12.8 5.632 6.144 14.336 9.728 22.528 9.728h427.52c17.92 0 31.744 14.336 31.744 31.744 0.512 17.92-13.824 32.256-31.744 32.256z" p-id="29376" fill="#ffffff"></path><path d="M50.688 933.888c-17.92 0-31.744-14.336-31.744-31.744v-59.904C18.944 658.944 128 493.056 296.96 420.864c16.384-6.656 34.816 0.512 41.984 16.896 7.168 16.384-0.512 35.328-16.896 41.984-144.896 61.952-239.104 204.288-239.104 362.496v59.904c0 17.92-14.336 32.256-32.256 31.744z" p-id="29377" fill="#ffffff"></path><path d="M460.8 514.56c-136.192 0-246.784-110.592-247.296-247.296C214.016 131.072 324.096 20.48 460.8 20.48c136.704 0 246.784 110.592 247.296 247.296-0.512 136.192-111.104 246.784-247.296 246.784z m0-430.592c-100.864 0-182.784 81.92-183.296 183.296C277.504 368.64 359.424 450.56 460.8 450.56c100.864 0 182.784-81.92 183.296-183.296-0.512-100.864-82.432-182.784-183.296-183.296zM778.752 829.44c-43.008 0-77.824-34.816-77.824-77.824s34.816-77.824 77.824-77.824 77.824 34.816 77.824 77.824-34.816 77.824-77.824 77.824z m0-111.104c-18.432-1.024-33.792 13.312-34.816 31.744-1.024 18.432 13.312 33.792 31.744 34.816h3.072c18.432-1.024 32.768-16.384 31.744-34.816-1.024-17.408-14.848-30.72-31.744-31.744z" p-id="29378" fill="#ffffff"></path><path d="M834.56 960.512c-11.264 0-20.48-8.192-22.016-19.456-2.56-17.408-17.408-30.208-34.816-30.208-16.896 0-31.744 12.8-34.816 30.208-2.048 12.288-13.312 20.48-25.088 18.944-1.024 0-2.56-0.512-3.584-1.024-31.744-9.728-60.416-26.624-84.48-49.152-9.216-8.704-9.216-22.528-1.024-31.744l2.048-2.048c13.312-10.752 16.896-29.696 8.192-45.056-8.704-14.336-26.624-20.992-43.008-14.848-11.776 4.608-24.576-1.536-28.672-12.8-0.512-1.024-0.512-2.048-1.024-3.072-3.584-16.384-5.632-32.768-5.632-48.64 0-15.872 2.048-32.256 5.632-48.64 1.536-6.144 5.632-11.776 11.264-14.848 5.632-3.072 12.288-3.584 18.432-1.024 15.36 11.776 37.376 9.216 49.152-6.144s9.216-37.376-6.144-49.152c-2.56-2.048-5.632-3.584-8.192-4.608-5.12-4.096-8.192-10.24-8.192-16.896-0.512-6.656 2.048-12.8 7.168-16.896 24.064-22.528 52.736-39.424 84.48-49.152 11.776-3.584 24.576 3.072 28.16 14.848 0.512 1.024 0.512 2.048 0.512 3.072 2.56 16.896 17.408 29.696 34.816 30.208 17.408 0 32.256-12.8 34.304-30.208 1.536-12.288 13.312-20.992 25.088-18.944 1.024 0 2.048 0.512 3.072 0.512 31.744 9.728 60.928 26.624 84.992 49.152 9.216 8.192 9.728 22.528 1.024 31.744l-2.56 2.56c-13.824 10.752-17.408 29.696-8.704 45.056 9.216 14.848 27.648 20.992 43.52 14.848 11.776-4.608 24.576 1.024 29.184 12.8 0.512 1.024 0.512 2.048 1.024 3.072 7.68 32.256 7.68 66.56 0 98.816-3.072 12.288-15.36 19.456-27.136 16.384-1.024 0-2.048-0.512-3.072-1.024-16.384-6.656-34.816-0.512-43.52 14.848-8.704 15.36-5.12 34.304 9.216 45.056 9.728 7.68 11.264 21.504 3.584 31.232-0.512 1.024-1.536 2.048-2.56 2.56-24.576 22.528-53.76 39.424-85.504 49.152-1.024 0-3.072 0.512-5.12 0.512z m-56.832-94.208c30.208 0 56.832 17.408 70.656 43.008 10.752-4.608 20.992-10.752 30.72-17.408-15.872-25.088-16.896-56.832-1.536-82.432 15.36-25.6 43.008-40.96 72.704-39.936 1.024-11.776 1.024-23.552 0-35.328-29.696 1.024-57.344-14.336-72.704-39.936-14.848-25.6-13.824-57.344 2.048-82.432-9.728-7.168-19.968-12.8-30.72-17.408-13.312 25.6-40.448 43.008-70.656 43.008-29.696 0-56.832-16.896-70.144-42.496-10.752 5.12-20.992 10.752-30.208 17.92 14.848 24.576 16.384 55.808 1.024 81.92-14.336 25.088-43.008 42.496-71.168 39.936-1.536 11.776-1.536 23.552 0 34.816 29.184 0 55.808 14.848 71.168 39.936 14.848 26.112 13.824 57.344-1.024 81.92 9.728 7.168 19.456 12.8 30.208 17.92 13.312-26.112 39.936-43.008 69.632-43.008z" p-id="29379" fill="#ffffff"></path></svg>